<?xml version="1.0" standalone="no"?>
<!DOCTYPE svg PUBLIC "-//W3C//DTD SVG 20010904//EN"
 "http://www.w3.org/TR/2001/REC-SVG-20010904/DTD/svg10.dtd">
<svg version="1.0" xmlns="http://www.w3.org/2000/svg"
 width="605.000000pt" height="605.000000pt" viewBox="0 0 605.000000 605.000000"
 preserveAspectRatio="xMidYMid meet">

<g transform="translate(0.000000,605.000000) scale(0.100000,-0.100000)"
fill="#000000" stroke="none">
<path d="M3594 5376 c-15 -24 -15 -28 0 -51 33 -50 110 -14 90 43 -14 39 -66
44 -90 8z"/>
<path d="M3938 5344 c-77 -41 -75 -169 2 -209 92 -47 200 39 171 136 -23 76
-105 111 -173 73z"/>
<path d="M1851 5271 c-25 -25 -27 -49 -5 -79 23 -33 73 -27 94 11 13 24 13 30
0 55 -20 35 -61 41 -89 13z"/>
<path d="M2795 5184 c-384 -58 -735 -214 -1020 -454 -421 -354 -669 -785 -770
-1335 -22 -121 -31 -435 -16 -562 33 -264 96 -483 205 -708 315 -647 940
-1094 1641 -1175 116 -13 315 -13 446 0 106 11 311 53 363 74 l29 12 -40 26
c-48 32 -76 86 -77 150 -1 26 -3 48 -6 48 -3 0 -55 -11 -115 -25 -108 -24
-354 -51 -378 -42 -8 3 -12 31 -12 83 l0 79 104 7 c201 13 400 57 551 122 13
5 14 -3 12 -49 -4 -51 -2 -55 18 -55 86 0 148 -126 104 -212 -16 -31 -16 -33
6 -50 33 -27 50 -23 159 31 216 109 395 247 668 516 192 188 193 190 193 233
0 51 -1 52 -285 342 -111 113 -269 275 -351 360 -82 85 -170 176 -195 202 -36
38 -53 48 -78 48 -48 0 -62 -11 -154 -122 -110 -134 -218 -236 -303 -286 -178
-105 -372 -127 -581 -66 -18 5 -28 -5 -67 -65 -26 -39 -52 -71 -58 -71 -23 0
-145 73 -209 126 -155 126 -251 276 -298 464 -42 172 -37 233 21 274 45 32
119 11 137 -37 6 -16 10 -3 16 48 25 239 169 451 377 557 106 54 196 72 331
65 230 -10 374 -93 579 -336 142 -167 168 -191 207 -191 39 0 8 -30 462 440
431 446 447 464 455 505 25 136 -158 198 -232 78 -20 -32 -111 -129 -331 -355
-109 -111 -164 -160 -190 -169 -39 -13 -139 -7 -156 10 -13 13 -39 2 -30 -13
3 -6 -5 -1 -19 12 -13 12 -28 19 -32 15 -4 -4 -5 5 -2 20 4 25 2 27 -30 27
-35 0 -64 18 -64 39 0 6 -16 11 -35 11 -31 0 -35 3 -35 26 0 14 -4 23 -10 19
-5 -3 -10 1 -10 9 0 10 -9 16 -25 16 -22 0 -25 4 -23 29 1 19 6 27 15 24 11
-4 11 -9 1 -22 -10 -13 -10 -14 1 -4 16 14 41 6 41 -13 0 -8 8 -14 19 -14 10
0 31 -10 47 -22 l29 -22 -19 22 c-30 35 -144 105 -157 96 -8 -4 -9 -3 -5 4 4
7 6 12 4 12 -2 0 -46 17 -98 38 -157 64 -263 83 -294 52 -5 -5 -21 -9 -35 -9
l-26 2 24 4 c13 3 31 11 38 19 12 12 1 14 -84 14 -123 0 -201 -12 -328 -51
-105 -33 -210 -81 -285 -132 -293 -199 -469 -563 -447 -925 16 -271 94 -448
285 -643 35 -37 61 -72 58 -78 -4 -7 -1 -9 8 -5 9 3 29 -5 46 -19 31 -26 29
-39 -6 -32 -10 2 -29 4 -41 4 -16 1 -23 7 -23 21 0 18 -7 20 -60 20 -41 0 -60
-4 -60 -12 0 -8 -7 -4 -15 6 -8 11 -13 29 -10 40 3 12 2 15 -1 8 -5 -10 -9
-10 -22 0 -13 11 -15 11 -8 -2 4 -8 -1 -6 -11 6 -10 11 -21 21 -25 22 -5 1 -9
5 -9 10 -1 4 -10 13 -20 20 -11 8 -16 19 -12 29 4 10 2 14 -5 9 -12 -7 -44 33
-36 46 3 4 1 8 -5 8 -10 0 -59 82 -63 108 -2 9 -8 22 -14 27 -6 6 -21 39 -33
75 -13 36 -26 72 -31 81 -21 39 -40 189 -40 309 0 339 119 630 354 864 245
245 626 384 949 348 252 -29 437 -106 672 -282 162 -121 165 -120 427 149
l199 206 3 67 c4 79 36 144 88 176 l33 21 33 -34 c60 -62 138 -69 213 -20 44
29 69 79 69 140 0 55 -18 93 -60 129 -69 58 -161 54 -224 -9 -18 -18 -49 -42
-68 -52 -19 -10 -118 -106 -219 -213 -352 -374 -359 -380 -406 -380 -34 0 -56
10 -120 53 -95 65 -206 126 -293 162 -36 14 -74 30 -85 35 -161 71 -503 79
-718 15 l-47 -14 -35 69 -35 69 33 10 c154 51 429 75 602 52 187 -25 338 -74
531 -175 58 -31 117 -56 131 -56 31 0 79 25 87 45 19 51 -4 84 -104 148 -356
225 -823 295 -1247 187 -158 -41 -261 -91 -290 -143 -30 -55 3 -127 58 -127
57 0 125 -53 135 -106 24 -131 -121 -210 -218 -117 -15 14 -31 42 -34 60 -4
23 -24 52 -58 86 -77 78 -93 150 -56 251 51 136 261 237 605 291 151 24 446
17 599 -14 228 -46 443 -135 622 -257 l97 -65 75 74 75 75 -59 46 c-166 131
-429 256 -664 316 -223 57 -572 77 -785 44z m-742 -728 c-21 -16 -90 -81 -153
-145 -223 -223 -362 -462 -454 -776 -19 -66 -37 -132 -40 -147 -5 -20 -14 -28
-38 -33 -18 -3 -55 -13 -81 -22 -27 -8 -50 -13 -53 -10 -10 9 48 252 87 364
72 208 193 426 336 603 84 104 277 289 360 344 l68 46 3 -97 3 -98 -38 -29z
m197 -207 l55 -50 -35 -27 c-141 -108 -289 -286 -371 -444 -107 -209 -153
-403 -153 -648 0 -306 66 -533 225 -769 70 -105 240 -287 328 -351 l60 -44
-32 -36 c-18 -20 -40 -47 -51 -60 -13 -16 -20 -19 -26 -11 -4 7 -11 13 -16 13
-48 2 -296 246 -383 378 -174 262 -256 519 -268 840 -5 152 -4 175 21 300 64
322 193 583 391 792 55 57 183 167 195 167 3 0 30 -22 60 -50z m1010 -179 c0
-5 -8 -10 -17 -10 -15 0 -16 2 -3 10 19 12 20 12 20 0z m83 -2 c-2 -5 -10 -8
-18 -8 -8 0 -16 3 -18 8 -3 4 5 7 18 7 13 0 21 -3 18 -7z m150 -46 c31 4 28
-24 -4 -32 -19 -6 -31 -2 -47 15 -24 25 -19 39 10 24 10 -6 29 -9 41 -7z m104
-46 c1 -1 -17 -2 -40 -3 -38 -2 -40 -1 -23 12 17 13 38 10 63 -9z m-32 -136
c3 -6 -1 -7 -9 -4 -18 7 -21 14 -7 14 6 0 13 -4 16 -10z m215 -70 c0 -5 -4
-10 -10 -10 -5 0 -10 5 -10 10 0 6 5 10 10 10 6 0 10 -4 10 -10z m-13 -31 c-9
-6 -14 -15 -11 -21 4 -7 2 -8 -5 -4 -14 9 3 36 23 36 6 0 3 -5 -7 -11z m207
-49 c7 0 27 -14 44 -31 41 -40 44 -89 7 -123 -25 -24 -55 -31 -52 -12 1 6 -8
11 -20 10 -13 0 -23 5 -23 13 0 7 9 13 20 13 11 0 20 -4 20 -8 0 -12 34 -11
42 1 3 6 -2 26 -13 45 -15 29 -16 39 -6 51 8 11 5 10 -9 -2 -21 -17 -21 -17
-17 6 3 14 -2 29 -11 36 -9 8 -16 19 -16 25 0 6 5 3 11 -6 5 -10 16 -18 23
-18z m-144 -10 c-12 -8 -12 -10 -1 -10 8 0 12 -3 8 -6 -9 -9 -28 6 -22 17 4 5
12 9 18 9 7 0 6 -4 -3 -10z m45 -10 c-3 -5 -10 -10 -16 -10 -5 0 -9 5 -9 10 0
6 7 10 16 10 8 0 12 -4 9 -10z m2 -49 c-1 -18 -7 -27 -14 -24 -7 3 -10 9 -7
14 3 5 0 9 -6 9 -6 0 -8 5 -5 10 4 6 11 8 16 5 5 -4 9 -1 9 4 0 6 2 11 5 11 2
0 3 -13 2 -29z m47 -42 c3 -3 -5 -5 -19 -5 -13 0 -22 3 -19 7 4 8 30 6 38 -2z
m-7 -34 c0 -8 -4 -12 -9 -9 -5 3 -6 10 -3 15 9 13 12 11 12 -6z m-2484 -911
c78 -262 174 -464 274 -577 19 -21 31 -42 28 -48 -11 -16 -129 -88 -137 -83
-21 13 -155 230 -198 320 -49 101 -130 329 -130 364 0 14 14 23 58 35 31 9 62
18 67 20 19 7 29 -1 38 -31z m2572 -116 c39 -18 59 -61 46 -101 -11 -33 -176
-190 -288 -273 -122 -91 -310 -174 -475 -210 -90 -19 -314 -22 -417 -4 -87 14
-157 41 -127 48 14 3 16 6 6 12 -10 6 -8 13 9 31 11 12 21 26 21 31 0 11 -23
6 -33 -7 -4 -5 -7 1 -5 15 2 18 8 24 22 22 11 -2 15 1 11 7 -3 6 1 11 10 11 9
0 14 -3 12 -7 -7 -11 95 -18 273 -18 130 1 169 4 239 23 199 54 339 139 507
308 131 132 138 136 189 112z m165 -228 c0 -5 3 -9 8 -9 22 4 34 -3 28 -16 -3
-8 0 -14 7 -12 7 1 12 -5 12 -13 0 -8 4 -18 8 -21 13 -9 -3 -81 -17 -76 -6 2
-10 16 -8 31 2 22 -1 26 -23 26 -23 0 -25 4 -25 41 0 37 -2 40 -22 33 -12 -3
-28 -13 -36 -20 -22 -22 -36 -16 -19 9 9 13 23 21 35 19 11 -2 23 2 27 8 8 13
25 13 25 0z m-57 -70 c-6 -24 -19 -26 -27 -4 -3 8 -2 12 3 9 5 -3 12 -1 16 5
10 16 14 12 8 -10z m-1562 -9 c3 -1 14 -9 25 -18 11 -10 24 -19 29 -20 6 -1
43 -17 84 -36 52 -24 68 -36 56 -41 -24 -9 -32 -7 -16 3 10 7 7 9 -12 8 -20
-2 -23 -5 -14 -16 10 -11 8 -13 -9 -7 -12 4 -40 3 -62 -2 l-40 -9 10 34 c5 19
7 37 4 41 -3 3 -6 -2 -6 -11 0 -19 -2 -20 -24 -11 -9 3 -16 15 -16 25 0 17 -6
21 -26 18 -9 -1 -24 23 -24 38 0 6 8 10 18 8 9 -2 20 -4 23 -4z m-187 -32 c-3
-5 -10 -7 -15 -3 -5 3 -7 10 -3 15 3 5 10 7 15 3 5 -3 7 -10 3 -15z m1721 12
c3 -5 1 -12 -5 -16 -5 -3 -10 1 -10 9 0 18 6 21 15 7z m-33 -49 c-14 -10 -22
-152 -8 -152 5 0 3 -6 -3 -14 -10 -11 -9 -14 3 -12 17 2 30 13 32 27 1 5 2 14
3 19 0 6 9 10 19 10 14 0 15 2 2 10 -9 6 -10 10 -3 10 76 1 -103 -168 -303
-286 -203 -120 -415 -181 -654 -191 -173 -7 -292 5 -456 47 -66 16 -129 30
-142 30 -34 0 -82 52 -82 88 0 36 31 78 65 86 16 4 62 -5 123 -24 275 -85 525
-90 790 -14 125 35 311 130 420 213 50 39 95 71 100 71 4 0 25 20 47 45 22 24
45 44 50 44 6 1 4 -3 -3 -7z m-1601 -29 c13 -16 12 -17 -3 -4 -17 13 -22 21
-14 21 2 0 10 -8 17 -17z m1754 7 c-3 -5 -12 -10 -18 -10 -7 0 -6 4 3 10 19
12 23 12 15 0z m305 -12 c58 -31 83 -76 77 -146 -3 -43 -10 -59 -37 -87 -39
-40 -89 -59 -135 -52 -75 12 -115 65 -115 152 0 121 104 187 210 133z m-1920
-58 c0 -6 -9 -2 -20 7 -11 10 -20 19 -20 21 0 1 9 -2 20 -8 11 -6 20 -15 20
-20z m1590 26 c0 -2 -7 -9 -15 -16 -13 -11 -14 -10 -9 4 5 14 24 23 24 12z
m-1548 -58 c-7 -7 -16 -7 -28 0 -14 8 -13 10 10 10 18 0 24 -4 18 -10z m61
-623 c32 -8 67 -15 77 -15 11 0 20 -4 20 -8 0 -4 17 -7 38 -5 20 1 28 0 17 -4
-11 -3 -32 -14 -47 -24 -15 -11 -43 -19 -67 -19 -23 0 -41 -4 -41 -10 0 -5
-21 -10 -46 -10 -41 0 -46 -2 -41 -20 3 -11 1 -20 -4 -20 -5 0 -9 10 -9 22 0
21 0 21 -14 2 -10 -13 -9 -1 5 40 10 33 19 65 19 73 0 17 22 17 93 -2z m-48
-126 c11 -16 1 -19 -13 -3 -7 8 -8 14 -3 14 5 0 13 -5 16 -11z"/>
<path d="M2550 2186 c0 -2 7 -7 16 -10 8 -3 12 -2 9 4 -6 10 -25 14 -25 6z"/>
<path d="M1591 5041 c-16 -30 -13 -56 9 -76 16 -15 26 -17 47 -9 37 13 49 37
37 71 -8 23 -16 29 -46 31 -28 2 -39 -1 -47 -17z"/>
<path d="M1342 4698 c-7 -7 -12 -26 -12 -43 0 -17 5 -36 12 -43 31 -31 88 1
88 49 0 32 -17 49 -50 49 -14 0 -31 -5 -38 -12z"/>
<path d="M1013 4269 c-87 -25 -109 -152 -36 -209 81 -64 193 -9 193 95 0 54
-23 90 -70 109 -45 18 -43 18 -87 5z"/>
<path d="M3893 3767 c0 -8 6 -14 14 -14 9 0 10 4 2 14 -6 7 -12 13 -14 13 -1
0 -2 -6 -2 -13z"/>
<path d="M3908 3733 c7 -3 16 -2 19 1 4 3 -2 6 -13 5 -11 0 -14 -3 -6 -6z"/>
<path d="M4634 3516 c-43 -19 -64 -53 -64 -102 0 -78 73 -130 142 -101 96 40
104 165 13 203 -42 17 -51 17 -91 0z"/>
<path d="M4465 3139 c-107 -31 -127 -182 -32 -239 86 -53 197 11 197 113 0 56
-25 96 -73 118 -47 21 -49 21 -92 8z"/>
<path d="M2441 3014 c0 -11 3 -14 6 -6 3 7 2 16 -1 19 -3 4 -6 -2 -5 -13z"/>
<path d="M4671 2704 c-28 -36 -27 -79 4 -109 50 -51 135 -15 135 58 0 72 -95
107 -139 51z"/>
<path d="M2096 2487 c3 -10 9 -15 12 -12 3 3 0 11 -7 18 -10 9 -11 8 -5 -6z"/>
<path d="M2165 2391 c-3 -5 -2 -12 3 -15 5 -3 9 1 9 9 0 17 -3 19 -12 6z"/>
<path d="M2199 2353 c-12 -16 -12 -16 1 -6 8 6 29 13 45 16 l30 4 -31 2 c-20
0 -37 -6 -45 -16z"/>
<path d="M2466 2242 c-3 -5 1 -9 9 -9 8 0 12 4 9 9 -3 4 -7 8 -9 8 -2 0 -6 -4
-9 -8z"/>
<path d="M914 2000 c-100 -64 -58 -230 59 -233 85 -2 143 59 134 141 -10 94
-113 143 -193 92z"/>
<path d="M1099 1581 c-75 -76 7 -194 104 -150 57 26 67 108 17 152 -41 37 -83
36 -121 -2z"/>
<path d="M1434 1436 c-74 -32 -104 -132 -63 -206 54 -95 171 -105 242 -21 37
45 44 93 21 150 -32 77 -121 111 -200 77z"/>
<path d="M4355 1218 c-105 -97 9 -268 135 -203 44 23 70 62 70 107 0 79 -48
128 -125 128 -37 0 -52 -6 -80 -32z"/>
<path d="M2072 844 c-24 -17 -30 -62 -10 -82 7 -7 24 -12 38 -12 33 0 50 17
50 51 0 24 -30 59 -50 59 -3 0 -16 -7 -28 -16z"/>
</g>
</svg>
